<svg xmlns="http://www.w3.org/2000/svg" viewBox="0 0 117.03 96.33"><defs><style>.cls-1{fill:#00aeef;}</style></defs><title>Asset 1code</title><g id="Layer_2" data-name="Layer 2"><g id="Layer_1-2" data-name="Layer 1"><path class="cls-1" d="M8.77,48.39c4.78,2.16,12.3,4.33,21.86,7.51A49.75,49.75,0,0,0,28.81,66C20,60.35,10.13,56,0,51.47A31.76,31.76,0,0,0,.11,42.7C8.43,40.53,24,35.64,31.43,32.79a65.53,65.53,0,0,0,.8,12.07A145.18,145.18,0,0,0,8.77,48.39Z"/><path class="cls-1" d="M47.94,95.87a38.65,38.65,0,0,0-11.16.46C45.66,76.06,67.18,14.23,71.51,0A99,99,0,0,0,88.13,0C80,16.4,53.4,82.32,47.94,95.87Z"/><path class="cls-1" d="M116.23,56.48a269.62,269.62,0,0,0-31.31,9.34,65.56,65.56,0,0,0-.8-12.07,144.58,144.58,0,0,0,23.57-3.53c-4.9-2.16-12.41-4.33-22-7.51a32.14,32.14,0,0,0,2.62-8.77A162.8,162.8,0,0,0,117,46.46,44.64,44.64,0,0,0,116.23,56.48Z"/></g></g></svg>