<svg xmlns="http://www.w3.org/2000/svg" viewBox="0 0 148 124"><defs><style>.cls-1{fill:#00aeef;}.cls-2{fill:none;stroke:#00aeef;stroke-miterlimit:10;}</style></defs><title>Asset 2code</title><g id="Layer_2" data-name="Layer 2"><g id="Layer_1-2" data-name="Layer 1"><path class="cls-1" d="M142.23,0H6.16A6.5,6.5,0,0,0,0,6.54V89.31C0,92.72,2.76,95,6.16,95H67v20H36v9h77v-9H82V95h60.23A5.44,5.44,0,0,0,148,89.31V6.54C148,3.14,145.64,0,142.23,0ZM144,83H5V6H130.7l.07.07.9.86,0,0,0,0-4.36,5.86L117.1,9.21,97,44.94l3.21,9.28,18.37-21.45.67.61-18.5,21.68,8.89,2.78,31.18-24.29-4-10.85,6.09-6.28.64.56.47.41Z"/><path class="cls-2" d="M4.87,18.3a30.73,30.73,0,0,1,11.71,1.37C24.13,22.22,34.67,30,40.77,43.19c5.48,13.65,13.58,26.45,27.89,28.14a32.25,32.25,0,0,0,32.08-17.27"/></g></g></svg>