<svg xmlns="http://www.w3.org/2000/svg" viewBox="0 0 113 95"><defs><style>.cls-1{fill:#ef392e;}.cls-2{fill:none;stroke:#ef392e;stroke-miterlimit:10;}</style></defs><title>Asset 2code</title><g id="Layer_2" data-name="Layer 2"><g id="Layer_1-2" data-name="Layer 1"><path class="cls-1" d="M109,0H4.72A5,5,0,0,0,0,5V68.42A4.6,4.6,0,0,0,4.72,73H51V88H28v7H87V88H63V73h46c2.61,0,4-2,4-4.58V5C113,2.41,111.58,0,109,0Zm1,64H4V5h96.13l.05-.15.69.56,0,0h0L97.54,9.87l-7.82-2.8L74.31,34.43l2.46,7.11L90.84,25.11l.51.47L77.18,42.18,84,44.31,107.88,25.7l-3.07-8.31,4.67-4.81.33.43.2.31Z"/><path class="cls-2" d="M3.73,14a23.54,23.54,0,0,1,9,1c5.78,2,13.86,7.91,18.53,18,4.2,10.46,10.4,20.26,21.37,21.56A24.71,24.71,0,0,0,77.18,41.42"/></g></g></svg>