<?xml version="1.0" encoding="utf-8"?>
<!-- Generator: Adobe Illustrator 18.1.0, SVG Export Plug-In . SVG Version: 6.00 Build 0)  -->
<svg version="1.1" id="Layer_1" xmlns="http://www.w3.org/2000/svg" xmlns:xlink="http://www.w3.org/1999/xlink" x="0px" y="0px"
	 viewBox="0 0 960 560" enable-background="new 0 0 960 560" xml:space="preserve">
<g>
	<path fill="#00ADEF" d="M348.8,240c3.8,1.7,9.8,3.5,17.5,6c-0.8,2.8-1.2,5.1-1.5,8.1c-7-4.6-14.9-8-23-11.6c0.2-1.8,0.5-4.6,0.1-7
		c6.6-1.7,19.1-5.6,25-7.9c0,0-0.2,5.2,0.6,9.6C362.9,237.4,355,238.4,348.8,240z"/>
	<path fill="#00ADEF" d="M383.8,277.9c-4.6-0.5-8.9,0.4-8.9,0.4c7.1-16.2,24.3-65.6,27.8-77c0,0,6.6,0.6,13.3,0
		C409.4,214.4,388.1,267.1,383.8,277.9z"/>
	<path fill="#00ADEF" d="M437.9,246.4c-5.6,1.2-19.1,5.1-25,7.5c0,0,0.2-5.2-0.6-9.6c4.7-0.3,12.6-1.3,18.8-2.8
		c-3.9-1.7-9.9-3.5-17.6-6c1-2.4,1.8-4.6,2.1-7c7,4,16.3,7.9,22.9,10C438.1,240.4,437.8,243.7,437.9,246.4z"/>
</g>
</svg>
