<svg xmlns="http://www.w3.org/2000/svg" viewBox="0 0 154.92 63.27"><defs><style>.cls-1{fill:#666;}</style></defs><title>Asset 3code</title><g id="Layer_2" data-name="Layer 2"><g id="Layer_1-2" data-name="Layer 1"><path class="cls-1" d="M25.75,51.92a43.41,43.41,0,0,0-7.11,7.45c-2.29-.34-6.78-.17-10.76-.17-2-1.86-5.59-6.78-7.88-8.64A89.73,89.73,0,0,0,.93,35.74a25.88,25.88,0,0,0,7.54-.17c0,2.63-.17,11.43.17,15.58a15.53,15.53,0,0,0,7.88-.42c.17-6.18,1.69-18.21-.51-50A119.28,119.28,0,0,0,28.54,1C27.61,10.93,25.92,33.71,25.75,51.92Z"/><path class="cls-1" d="M59,63.27a33.47,33.47,0,0,0-7.88-.59,147.91,147.91,0,0,0,.59-20.5,45.81,45.81,0,0,0-7.71.59,102.83,102.83,0,0,0,.59,16.69,104.72,104.72,0,0,0-12.62,0c.76-10.5,2.8-36.25,2.63-50.74A28.12,28.12,0,0,0,43.37.85,52.23,52.23,0,0,0,53.7,1.95a37.15,37.15,0,0,0,6.44,8.13C59.55,20.75,58.28,53.62,59,63.27Zm-9.15-50.4a43,43,0,0,0-6.61,0,182.62,182.62,0,0,0-.59,23,31.45,31.45,0,0,0,7.54-.42C50.74,28.88,50.15,18.55,49.81,12.87Z"/><path class="cls-1" d="M78.94,28.63c0-3.39.68-11.6.08-15a19.85,19.85,0,0,0-7.45-.08c-.17,6.95-.68,29.48-.17,39.13a55.87,55.87,0,0,0,7.54,0c0-1.52.34-6.44.17-9.23,2.63,0,9.23.34,11.69,0,0,3,.17,8.81.17,10.5a50,50,0,0,0-6.78,5.42c-4-.68-12.2-.34-14.06-.17a97.12,97.12,0,0,0-6.61-10.5c.17-5.67.76-31.93.59-37,2-2.2,8.81-9,9.83-10.16A82.37,82.37,0,0,0,83.43,1c.93,2,6.18,7.45,8.81,10.08,0,4.15-.34,11.52.42,17.53C90.21,28.38,81.74,28,78.94,28.63Z"/><path class="cls-1" d="M124.77,50.31A53,53,0,0,0,116,59.54a115.67,115.67,0,0,0-12,.59c-2.79-2.46-6-5.51-7.88-6.44.59-11.27,1.36-27.19.93-42.86,3.39-3,9.06-8.39,10.33-10.5A71.69,71.69,0,0,0,116.38,0a123.5,123.5,0,0,0,8.81,8.81C123.5,32.27,124.43,45.82,124.77,50.31ZM103.42,12.54c0,5.68.17,27.87.34,39a28.59,28.59,0,0,0,9.57-.25c-.17-4.49.59-28.71.42-39A51.41,51.41,0,0,0,103.42,12.54Z"/><path class="cls-1" d="M154.5,31.09c-1.1.51-6.18,3.73-7.88,4.83,1.52.76,5.42,2.63,6.78,3,0,2-.17,10.84.17,15.42a65.57,65.57,0,0,0-6,5.42c-2.79-.17-16.35-.59-19-.59,1.52-12.79,1.86-46.42.76-58,3.73,0,13-.76,16.18-.93,1.69,2.46,7.88,6.95,9.4,9C154.67,12.79,154.33,26.77,154.5,31.09Zm-11.43,8.64a55.31,55.31,0,0,0-6.52.08,112.2,112.2,0,0,0-.34,11.86,46.66,46.66,0,0,0,7-.08C143.06,47.52,143.15,42.69,143.06,39.73Zm1.95-29a34.29,34.29,0,0,0-7.88-.08c-.17,6-.42,14.65-.08,18.72,2.63.17,6.52.25,8.13-.17C145.61,22.62,145.61,15,145,10.76Z"/></g></g></svg>