<svg xmlns="http://www.w3.org/2000/svg" viewBox="0 0 452.97 66.07"><defs><style>.cls-1{fill:#666;}</style></defs><title>Asset 4code</title><g id="Layer_2" data-name="Layer 2"><g id="Layer_1-2" data-name="Layer 1"><path class="cls-1" d="M31.17,27.27A49,49,0,0,0,19,27.1a98.4,98.4,0,0,0-.17-14A73,73,0,0,0,10,13c.17,4.49.68,15.58,1.27,20.33a80,80,0,0,0,12.62-.17A77.71,77.71,0,0,0,31,40.83c0,2.79,0,9.15.17,12.54a69.89,69.89,0,0,0-7.54,6.78c-3.13.17-11.94.59-15.58,1.1A67,67,0,0,0,.34,56.16,60.32,60.32,0,0,0,0,46.25c3.22.17,7.37.34,11.44.34l.42,6.61A38.57,38.57,0,0,0,21,52.6c.25-2.2.59-8.64-.17-11.77A125.48,125.48,0,0,0,3,39.64c.59-5.08.42-20.67-.17-28.37,3-2.46,8.13-7.11,10.33-10.33A72,72,0,0,0,23.89.17a61.94,61.94,0,0,0,7.71,8.3A132,132,0,0,0,31.17,27.27Z"/><path class="cls-1" d="M50.4,29.48c0-3.39.68-11.6.08-15A19.85,19.85,0,0,0,43,14.4c-.17,6.95-.68,29.48-.17,39.13a56,56,0,0,0,7.54,0c0-1.52.34-6.44.17-9.23,2.63,0,9.23.34,11.69,0,0,3,.17,8.81.17,10.5a50,50,0,0,0-6.78,5.42c-4-.68-12.2-.34-14.06-.17A97.17,97.17,0,0,0,35,49.55c.17-5.67.76-31.93.59-37,2-2.2,8.81-9,9.83-10.16a82.37,82.37,0,0,0,9.49-.51c.93,2,6.18,7.45,8.81,10.08,0,4.15-.34,11.52.42,17.53C61.66,29.22,53.19,28.88,50.4,29.48Z"/><path class="cls-1" d="M86.4,63.86c.34-4.83.42-25-.08-31.34a60,60,0,0,0-10.33,0c-.17,6.18,0,22.7.93,28.38a61,61,0,0,0-9.23.34c1.19-13.89,2.54-44.81-.17-60.14a28.22,28.22,0,0,0,9.4-.17c-.17,3.39-1.35,18-.93,23.89a20.53,20.53,0,0,0,7.54,0c.17-3.39.17-19.57-.42-24.39,2.46.51,9,0,12.54-.42-2.29,22.53-2.12,48.19.76,63.7A36.45,36.45,0,0,0,86.4,63.86Z"/><path class="cls-1" d="M128.5,51.16a53,53,0,0,0-8.81,9.23,115.67,115.67,0,0,0-12,.59c-2.8-2.46-6-5.5-7.88-6.44.59-11.27,1.36-27.19.93-42.86,3.39-3,9.06-8.39,10.33-10.5a71.68,71.68,0,0,0,9.06-.34,123.39,123.39,0,0,0,8.81,8.81C127.23,33.12,128.16,46.67,128.5,51.16ZM107.15,13.38c0,5.67.17,27.87.34,39a28.59,28.59,0,0,0,9.57-.25c-.17-4.49.59-28.71.42-39A51.34,51.34,0,0,0,107.15,13.38Z"/><path class="cls-1" d="M161,51.16a53,53,0,0,0-8.81,9.23,115.67,115.67,0,0,0-12,.59c-2.8-2.46-6-5.5-7.88-6.44.59-11.27,1.36-27.19.93-42.86,3.39-3,9.06-8.39,10.33-10.5a71.68,71.68,0,0,0,9.06-.34,123.39,123.39,0,0,0,8.81,8.81C159.75,33.12,160.68,46.67,161,51.16ZM139.68,13.38c0,5.67.17,27.87.34,39a28.59,28.59,0,0,0,9.57-.25c-.17-4.49.59-28.71.42-39A51.34,51.34,0,0,0,139.68,13.38Z"/><path class="cls-1" d="M164.83,61.66c1.36-15.08,1.1-42.86,0-60a53.22,53.22,0,0,0,11.1.42c-.17,3.13-2.12,35.57-1.86,49a68.94,68.94,0,0,0,14.06-.76c-.17,1.35,0,7.28.17,11.43A207,207,0,0,0,164.83,61.66Z"/><path class="cls-1" d="M225.31,63.53c.76-13,1.36-23.12-.34-42.1-2.88,11.44-5.08,29.31-6,37.95a35.26,35.26,0,0,0-9.06.42,306.89,306.89,0,0,0-8-32.95c-.42,8.47.76,22,1.69,35-3-.59-9.4-.17-11.86,0,1.1-16.52.93-47.94.34-57.85a49.77,49.77,0,0,0,13.21-.59A325.33,325.33,0,0,0,215.32,39.3c1.52-6.44,6.27-29.48,7.2-37.61,4.15,1.1,7.11.93,11.43.42-.34,8.64-1.52,35.83,0,60.65A31.32,31.32,0,0,0,225.31,63.53Z"/><path class="cls-1" d="M262,13.89c-3.3-.08-8.89-.25-12.28,0,0,0-.68,10.67-.34,21.34A110.38,110.38,0,0,0,260.8,35s-.17,4.15,0,8.89a130.83,130.83,0,0,0-15.25-.17,85.62,85.62,0,0,0,0,11.52,115.22,115.22,0,0,0,16.6-.42,50.08,50.08,0,0,0,.17,7.28s-11.1-.51-25,.17c1.52-14,2.46-44.89,1.86-59.88,6.69.68,16,.17,23.46-.08A101.35,101.35,0,0,0,262,13.89Z"/><path class="cls-1" d="M290.7,13.89c-3.3-.08-8.89-.25-12.28,0,0,0-.68,10.67-.34,21.34A110.38,110.38,0,0,0,289.52,35s-.17,4.15,0,8.89a130.83,130.83,0,0,0-15.25-.17,85.62,85.62,0,0,0,0,11.52,115.22,115.22,0,0,0,16.6-.42,50.08,50.08,0,0,0,.17,7.28s-11.1-.51-25,.17c1.52-14,2.46-44.89,1.86-59.88,6.69.68,16,.17,23.46-.08A101.35,101.35,0,0,0,290.7,13.89Z"/><path class="cls-1" d="M317,62.34c-3.13-.34-10.93-.42-15.33-.42-1.69-1.52-6.27-3.81-8-4.83a147.19,147.19,0,0,0,.17-15.25,72.44,72.44,0,0,0,12.79,1.1L307,53.87a47.81,47.81,0,0,0,9.23-.17c.17-2.29.59-15.08-.17-18.29a106.8,106.8,0,0,0-13.47.42,47.26,47.26,0,0,0-6.78-7.45c0-5.51,0-12.45-.42-17.79A81.93,81.93,0,0,0,305.93.68a101.6,101.6,0,0,0,11.43.25C319.06,3,321,4.49,324.65,7.79a111.49,111.49,0,0,0-.34,15.33A60.94,60.94,0,0,0,316.1,23c.42-2.46.17-6.18-.17-10.42a61.33,61.33,0,0,0-9-.17c.17,4.57.25,9.74.85,14.48a91.39,91.39,0,0,0,9.57-.17c1.69,2.2,6,5.67,8,7.12a202.06,202.06,0,0,0,.17,20.33C323.63,55.39,318.72,60.48,317,62.34Z"/><path class="cls-1" d="M349.64,13.21c-.85,18.21,0,37.69.51,48.53-1.61-.17-9.66-.17-11,0,1.36-14.06,1.86-40.83,1.69-51.08a60.4,60.4,0,0,0-11.52-.25,36.76,36.76,0,0,0,.17-8c5.42.76,21.34.76,30.15,0a75,75,0,0,0,.17,10.93A68.32,68.32,0,0,0,349.64,13.21Z"/><path class="cls-1" d="M386.14,13.89c-3.3-.08-8.89-.25-12.28,0,0,0-.68,10.67-.34,21.34A110.38,110.38,0,0,0,385,35s-.17,4.15,0,8.89a130.83,130.83,0,0,0-15.25-.17,85.62,85.62,0,0,0,0,11.52,115.22,115.22,0,0,0,16.6-.42,50.08,50.08,0,0,0,.17,7.28s-11.1-.51-25,.17c1.52-14,2.46-44.89,1.86-59.88,6.69.68,16,.17,23.46-.08A101.35,101.35,0,0,0,386.14,13.89Z"/><path class="cls-1" d="M420.11,66.07c-1.95-.17-11.43-.51-14.4-.08,0-2.46-3.22-21.94-3.56-24.73-.93-.08-4.4-.17-5.34-.08,0,3.64.25,17.11.34,19.65a30.57,30.57,0,0,0-6.95.25c1.19-20.5.68-36.93,0-56.41,5.51-.17,13.3-.59,17-1.19,1.95,2.46,7.45,6.35,9.83,8.13a181.51,181.51,0,0,0,.08,22c-4.57,3.13-8,4.91-9.83,6.78.76,5.84,5.34,17.19,6.27,19.06a51.84,51.84,0,0,0,6.61-.25A23.24,23.24,0,0,0,420.11,66.07ZM396.48,12.71c.08,4.91.51,17.53.42,19.74A47.22,47.22,0,0,0,406,32a165.34,165.34,0,0,0,.08-19.4A91.1,91.1,0,0,0,396.48,12.71Z"/><path class="cls-1" d="M444.5,62.34c-3.13-.34-10.93-.42-15.33-.42-1.69-1.52-6.27-3.81-8-4.83a147.07,147.07,0,0,0,.17-15.25,72.43,72.43,0,0,0,12.79,1.1l.34,10.93a47.81,47.81,0,0,0,9.23-.17c.17-2.29.59-15.08-.17-18.29a106.8,106.8,0,0,0-13.47.42,47.28,47.28,0,0,0-6.78-7.45c0-5.51,0-12.45-.42-17.79A81.93,81.93,0,0,0,433.4.68a101.62,101.62,0,0,0,11.44.25c1.69,2.12,3.64,3.56,7.28,6.86a111.31,111.31,0,0,0-.34,15.33,60.94,60.94,0,0,0-8.22-.17c.42-2.46.17-6.18-.17-10.42a61.33,61.33,0,0,0-9-.17c.17,4.57.25,9.74.85,14.48a91.39,91.39,0,0,0,9.57-.17c1.69,2.2,6,5.67,8,7.12A202.07,202.07,0,0,0,453,54.12C451.1,55.39,446.19,60.48,444.5,62.34Z"/></g></g></svg>